<?xml version="1.0" encoding="utf-8"?>
<!-- Generator: Adobe Illustrator 18.1.1, SVG Export Plug-In . SVG Version: 6.00 Build 0)  -->
<svg version="1.1" id="Layer_1" xmlns="http://www.w3.org/2000/svg" xmlns:xlink="http://www.w3.org/1999/xlink" x="0px" y="0px"
	 viewBox="0 0 140.5 93.2" enable-background="new 0 0 140.5 93.2" xml:space="preserve">
<path fill="#FFFFFF" stroke="#2C3E50" stroke-miterlimit="10" d="M126.9,91.4H14.1c-6.6,0-12-5.4-12-12V13.1c0-6.6,5.4-12,12-12
	h112.8c6.6,0,12,5.4,12,12v66.2C138.9,86,133.5,91.4,126.9,91.4z"/>
<text transform="matrix(1 0 0 1 13.6808 24.0002)" fill="#2C3E50" font-family="'OpenSans-Bold'" font-size="14.0325">Time Remaining</text>
<g>
	<g id="Fill_2_">
		<g>
			<circle fill="#FFFFFF" cx="70.5" cy="56.2" r="22.3"/>
		</g>
	</g>
	<g id="Yellow_2_">
		<g>
			<circle fill="#3B97D3" cx="70.5" cy="56.2" r="18.3"/>
		</g>
	</g>
	<g id="Black_3_">
		<g>
			<path fill="#171C1F" d="M78.4,62.2l-4.7-4.7c0.2-0.4,0.3-0.9,0.3-1.4c0-1.5-0.9-2.7-2.2-3.2V42.2c0-0.7-0.6-1.3-1.3-1.3
				s-1.3,0.6-1.3,1.3v10.7c-1.3,0.5-2.2,1.8-2.2,3.2c0,1.9,1.6,3.5,3.5,3.5c0.5,0,0.9-0.1,1.4-0.3l4.7,4.7c0.2,0.2,0.6,0.4,0.9,0.4
				c0.7,0,1.3-0.6,1.3-1.3C78.8,62.8,78.7,62.5,78.4,62.2z"/>
		</g>
	</g>
	<g id="White_2_">
		<g>
			<path fill="#FFFFFF" d="M70.9,55.4V42.2c0-0.2-0.2-0.4-0.4-0.4c-0.2,0-0.4,0.2-0.4,0.4v13.2c-0.3,0.2-0.4,0.4-0.4,0.8
				c0,0.5,0.4,0.9,0.9,0.9c0.5,0,0.9-0.4,0.9-0.9C71.4,55.8,71.2,55.6,70.9,55.4z"/>
		</g>
	</g>
	<g id="Red_3_">
		<g>
			<path fill="#F37476" d="M77.8,62.8l-7-7c-0.1-0.1-0.2-0.1-0.3-0.1c-0.2,0-0.4,0.2-0.4,0.4c0,0.1,0,0.2,0.1,0.3v0l7,7v0
				c0.1,0.1,0.2,0.1,0.3,0.1c0.2,0,0.4-0.2,0.4-0.4C77.9,63,77.9,62.9,77.8,62.8z"/>
		</g>
	</g>
	<g id="Shadows_2_" opacity="0.102">
		<g>
			<path fill="#010101" d="M70.5,40c9.6,0,17.4,7.6,17.9,17c0-0.3,0-0.6,0-0.9c0-9.9-8-17.9-17.9-17.9s-17.9,8-17.9,17.9
				c0,0.3,0,0.6,0,0.9C53.1,47.5,60.9,40,70.5,40z M76.6,64.1l-4.7-4.7c-0.4,0.2-0.9,0.3-1.4,0.3c-1.6,0-3-1.1-3.4-2.6
				C67,57.3,67,57.6,67,57.9c0,1.9,1.6,3.5,3.5,3.5c0.5,0,0.9-0.1,1.4-0.3l4.7,4.7c0.2,0.2,0.6,0.4,0.9,0.4c0.7,0,1.3-0.6,1.3-1.3
				c0-0.3-0.1-0.6-0.3-0.9c-0.2,0.3-0.6,0.4-1,0.4C77.1,64.5,76.8,64.3,76.6,64.1z M91.9,55.7c-0.2,11.6-9.7,21-21.4,21
				s-21.2-9.3-21.4-21c0,0.1,0,0.3,0,0.4c0,11.8,9.6,21.4,21.4,21.4S91.9,68,91.9,56.2C91.9,56,91.9,55.9,91.9,55.7z"/>
		</g>
	</g>
	<g id="Inner_Lines_3_" opacity="0.251">
		<g>
			<path fill="#171C1F" d="M63.9,43.8c-0.1-0.2-0.4-0.3-0.6-0.2c-0.2,0.1-0.3,0.4-0.2,0.6l0.4,0.8c0.1,0.2,0.4,0.3,0.6,0.2
				c0.2-0.1,0.3-0.4,0.2-0.6L63.9,43.8z M59.4,49.2l-0.8-0.4c-0.2-0.1-0.5,0-0.6,0.2c-0.1,0.2,0,0.5,0.2,0.6l0.8,0.4
				c0.2,0.1,0.5,0,0.6-0.2C59.7,49.6,59.6,49.3,59.4,49.2z M64.2,67.1c-0.2-0.1-0.5,0-0.6,0.2L63.1,68c-0.1,0.2,0,0.5,0.2,0.6
				c0.2,0.1,0.5,0,0.6-0.2l0.4-0.8C64.4,67.5,64.4,67.3,64.2,67.1z M57.4,55.7h-0.9c-0.2,0-0.4,0.2-0.4,0.4s0.2,0.4,0.4,0.4h0.9
				c0.2,0,0.4-0.2,0.4-0.4S57.6,55.7,57.4,55.7z M58.9,62.3l-0.8,0.4c-0.2,0.1-0.3,0.4-0.2,0.6c0.1,0.2,0.4,0.3,0.6,0.2l0.8-0.4
				c0.2-0.1,0.3-0.4,0.2-0.6C59.4,62.3,59.1,62.2,58.9,62.3z M82.4,48.8l-0.8,0.4c-0.2,0.1-0.3,0.4-0.2,0.6c0.1,0.2,0.4,0.3,0.6,0.2
				l0.8-0.4c0.2-0.1,0.3-0.4,0.2-0.6C82.9,48.7,82.6,48.7,82.4,48.8z M84.5,55.7h-0.9c-0.2,0-0.4,0.2-0.4,0.4s0.2,0.4,0.4,0.4h0.9
				c0.2,0,0.4-0.2,0.4-0.4S84.7,55.7,84.5,55.7z M82.8,62.8l-0.8-0.4c-0.2-0.1-0.5,0-0.6,0.2c-0.1,0.2,0,0.5,0.2,0.6l0.8,0.4
				c0.2,0.1,0.5,0,0.6-0.2C83.1,63.2,83,62.9,82.8,62.8z M70.5,68.8c-0.2,0-0.4,0.2-0.4,0.4v0.9c0,0.2,0.2,0.4,0.4,0.4
				c0.2,0,0.4-0.2,0.4-0.4v-0.9C70.9,69,70.7,68.8,70.5,68.8z M77.4,67.3c-0.1-0.2-0.4-0.3-0.6-0.2c-0.2,0.1-0.3,0.4-0.2,0.6
				l0.4,0.8c0.1,0.2,0.4,0.3,0.6,0.2c0.2-0.1,0.3-0.4,0.2-0.6L77.4,67.3z M77.7,43.7c-0.2-0.1-0.5,0-0.6,0.2l-0.4,0.8
				c-0.1,0.2,0,0.5,0.2,0.6c0.2,0.1,0.5,0,0.6-0.2l0.4-0.8C78,44.1,77.9,43.8,77.7,43.7z"/>
		</g>
	</g>
	<g id="Outline_2_">
		<g>
			<path fill="#171C1F" d="M70.5,37.4c-10.4,0-18.8,8.4-18.8,18.8s8.4,18.8,18.8,18.8s18.8-8.4,18.8-18.8S80.9,37.4,70.5,37.4z
				 M70.5,74.1c-9.9,0-17.9-8-17.9-17.9c0-9.9,8-17.9,17.9-17.9s17.9,8,17.9,17.9C88.4,66.1,80.4,74.1,70.5,74.1z M70.5,33
				c-12.8,0-23.2,10.4-23.2,23.2c0,12.8,10.4,23.2,23.2,23.2s23.2-10.4,23.2-23.2C93.7,43.4,83.3,33,70.5,33z M70.5,77.6
				c-11.8,0-21.4-9.6-21.4-21.4s9.6-21.4,21.4-21.4s21.4,9.6,21.4,21.4S82.3,77.6,70.5,77.6z"/>
		</g>
	</g>
</g>
</svg>
