<?xml version="1.0" encoding="utf-8"?>
<!-- Generator: Adobe Illustrator 15.0.0, SVG Export Plug-In . SVG Version: 6.00 Build 0)  -->
<!DOCTYPE svg PUBLIC "-//W3C//DTD SVG 1.1//EN" "http://www.w3.org/Graphics/SVG/1.1/DTD/svg11.dtd">
<svg version="1.1" id="Layer_1" xmlns="http://www.w3.org/2000/svg" xmlns:xlink="http://www.w3.org/1999/xlink" x="0px" y="0px"
	 width="328.257px" height="113.353px" viewBox="0 0 328.257 113.353" enable-background="new 0 0 328.257 113.353"
	 xml:space="preserve">
<g>
	<path fill="#73D0F2" d="M0,113.353V51.78h30.269c7.096,0,11.931,1.134,14.502,3.405c2.572,2.271,3.856,6.549,3.856,12.833
		c0,7.609-3.022,12.09-9.066,13.443v0.225c7.037,1.084,10.556,5.971,10.556,14.661c0,6.286-1.354,10.691-4.06,13.218
		c-2.707,2.525-7.428,3.788-14.165,3.788H0z M11.684,77.627h14.298c4.631,0,7.586-0.512,8.865-1.533
		c1.278-1.022,1.917-3.385,1.917-7.083c0-4.931-2.797-7.398-8.39-7.398h-16.69V77.627z M11.684,103.52h12.811l4.104-0.09
		c3.939,0,6.532-0.558,7.781-1.669c1.247-1.113,1.872-3.458,1.872-7.038c0-3.729-0.653-6.074-1.962-7.037
		c-1.308-0.961-4.533-1.443-9.676-1.443H11.684V103.52z"/>
	<path fill="#73D0F2" d="M68.61,70.229v43.124H58.28V70.229H68.61z"/>
	<path fill="#73D0F2" d="M106.593,70.229v7.849H89.991V99.73c0,4,1.52,5.998,4.558,5.998c3.338,0,5.006-2.419,5.006-7.262v-1.715
		h8.798v2.166c0,1.984-0.062,3.684-0.182,5.097c-0.571,6.587-5.474,9.88-14.706,9.88c-9.201,0-13.803-4.225-13.803-12.676V78.077
		h-5.593v-7.849h5.593v-9.653h10.329v9.653H106.593z"/>
	<path fill="#3B97D3" d="M186.345,51.78v61.573h-11.684V79.791c0-2.676,0.074-5.713,0.227-9.111l0.223-4.602l0.227-4.555h-0.359
		l-1.4,4.284l-1.352,4.285c-1.262,3.851-2.242,6.692-2.932,8.526l-13.533,34.733h-10.646L131.446,78.89
		c-0.752-1.896-1.744-4.736-2.977-8.526l-1.398-4.285l-1.398-4.238h-0.361l0.227,4.465l0.225,4.51
		c0.18,3.49,0.271,6.482,0.271,8.977v33.562h-11.684V51.78h19.035l11.006,28.507c0.754,1.985,1.744,4.828,2.979,8.527l1.352,4.285
		l1.4,4.239h0.404l1.309-4.239l1.354-4.24c1.113-3.578,2.074-6.406,2.889-8.48l10.824-28.599H186.345z"/>
	<path fill="#3B97D3" d="M224.64,99.549h10.377v1.67c0,8.421-6.312,12.629-18.947,12.629c-8.566,0-14.178-1.457-16.824-4.373
		c-2.646-2.918-3.969-9.099-3.969-18.542c0-8.39,1.381-14.028,4.146-16.915c2.768-2.887,8.172-4.33,16.197-4.33
		c7.697,0,12.855,1.406,15.475,4.218c2.613,2.812,3.922,8.337,3.922,16.577v3.158h-29.184c-0.059,0.963-0.092,1.594-0.092,1.895
		c0,4.24,0.652,7.066,1.963,8.479c1.309,1.414,3.918,2.121,7.824,2.121c3.793,0,6.256-0.414,7.402-1.241
		C224.071,104.068,224.64,102.287,224.64,99.549z M224.731,87.324l-0.043-1.713c0-3.429-0.594-5.654-1.781-6.676
		c-1.189-1.022-3.768-1.534-7.738-1.534c-3.85,0-6.35,0.616-7.512,1.85c-1.156,1.232-1.734,3.924-1.734,8.073H224.731z"/>
	<path fill="#3B97D3" d="M279.63,82.093h-10.107c-0.059-0.361-0.102-0.632-0.133-0.812c-0.209-2.076-0.807-3.368-1.781-3.88
		c-0.977-0.511-3.346-0.767-7.102-0.767c-5.387,0-8.078,1.744-8.078,5.232c0,2.376,0.475,3.788,1.422,4.24
		c0.945,0.451,4.156,0.812,9.631,1.082c7.365,0.36,12.164,1.338,14.391,2.932c2.221,1.595,3.338,4.857,3.338,9.789
		c0,5.264-1.48,8.909-4.447,10.939c-2.963,2.029-8.273,3.045-15.943,3.045c-7.367,0-12.406-0.918-15.111-2.752
		c-2.709-1.834-4.061-5.263-4.061-10.285v-1.082h10.734c-0.15,0.601-0.24,1.082-0.268,1.443c-0.424,3.818,2.523,5.729,8.842,5.729
		c6.521,0,9.787-1.895,9.787-5.685c0-3.638-2.045-5.457-6.137-5.457c-9.23,0-15.312-0.873-18.244-2.616
		c-2.93-1.744-4.398-5.369-4.398-10.871c0-4.933,1.338-8.271,4.016-10.015c2.674-1.743,7.816-2.616,15.428-2.616
		c7.184,0,12.018,0.842,14.502,2.525C278.39,73.898,279.63,77.191,279.63,82.093z"/>
	<path fill="#3B97D3" d="M299.659,51.78v25.576l0.225,0.046c1.924-5.112,6.344-7.669,13.262-7.669
		c10.076,0,15.111,4.768,15.111,14.299v29.321h-10.328V86.873v-1.397c0-5.053-2.574-7.578-7.717-7.578
		c-7.039,0-10.553,3.653-10.553,10.962v24.493h-10.332V51.78H299.659z"/>
</g>
<path fill="#3B97D3" d="M109.595,26.292c0,0-17.493-19.495-46.146-19.495c-28.734,0-45.931,17.995-45.931,17.995l-7.198-4.516
	C10.32,20.276,32.427,0,63.449,0c31.024,0,51.243,21.477,51.243,21.477"/>
<path fill="#3B97D3" d="M97.308,36.524c0,0-14.128-11.998-33.229-11.998c-19.157,0-33.019,11.998-33.019,11.998l-6.043-5.133
	c0,0,18.009-14.397,38.689-14.397c20.682,0,38.691,14.697,38.691,14.697"/>
<path fill="#3B97D3" d="M82.538,48.717c0,0-7.93-8.558-19.645-8.558c-11.752,0-17.854,8.558-17.854,8.558l-6.272-5.444
	c0,0,11.439-9.492,24.126-9.492c12.684,0,24.552,9.981,24.552,9.981"/>
<circle fill="#73D0F2" cx="63.466" cy="57.23" r="7.776"/>
</svg>
