<?xml version="1.0" encoding="utf-8"?>
<!-- Generator: Adobe Illustrator 18.1.1, SVG Export Plug-In . SVG Version: 6.00 Build 0)  -->
<svg version="1.1" id="Layer_1" xmlns="http://www.w3.org/2000/svg" xmlns:xlink="http://www.w3.org/1999/xlink" x="0px" y="0px"
	 viewBox="0 0 538.6 126.6" enable-background="new 0 0 538.6 126.6" xml:space="preserve">
<g>
	<path fill="#73D0F2" d="M23,108.8V16.5h45.3c10.6,0,17.9,1.7,21.7,5.1c3.9,3.4,5.8,9.8,5.8,19.2c0,11.4-4.5,18.1-13.6,20.1v0.3
		c10.5,1.6,15.8,8.9,15.8,22c0,9.4-2,16-6.1,19.8c-4.1,3.8-11.1,5.7-21.2,5.7H23z M40.5,55.2h21.4c6.9,0,11.4-0.8,13.3-2.3
		c1.9-1.5,2.9-5.1,2.9-10.6c0-7.4-4.2-11.1-12.6-11.1h-25V55.2z M40.5,94h19.2l6.1-0.1c5.9,0,9.8-0.8,11.7-2.5
		c1.9-1.7,2.8-5.2,2.8-10.5c0-5.6-1-9.1-2.9-10.5c-2-1.4-6.8-2.2-14.5-2.2H40.5V94z"/>
	<path fill="#73D0F2" d="M125.8,44.2v64.6h-15.5V44.2H125.8z"/>
	<path fill="#73D0F2" d="M182.7,44.2v11.8h-24.9v32.4c0,6,2.3,9,6.8,9c5,0,7.5-3.6,7.5-10.9v-2.6h13.2v3.2c0,3-0.1,5.5-0.3,7.6
		c-0.9,9.9-8.2,14.8-22,14.8c-13.8,0-20.7-6.3-20.7-19V55.9H134V44.2h8.4V29.7h15.5v14.5H182.7z"/>
	<path fill="#3B97D3" d="M302.1,16.5v92.2h-17.5V58.5c0-4,0.1-8.6,0.3-13.6l0.3-6.9l0.3-6.8h-0.5l-2.1,6.4l-2,6.4
		c-1.9,5.8-3.4,10-4.4,12.8l-20.3,52h-15.9l-20.5-51.6c-1.1-2.8-2.6-7.1-4.5-12.8l-2.1-6.4l-2.1-6.3h-0.5l0.3,6.7l0.3,6.8
		c0.3,5.2,0.4,9.7,0.4,13.4v50.3h-17.5V16.5h28.5l16.5,42.7c1.1,3,2.6,7.2,4.5,12.8l2,6.4l2.1,6.3h0.6l2-6.3l2-6.4
		c1.7-5.4,3.1-9.6,4.3-12.7L273,16.5H302.1z"/>
	<path fill="#3B97D3" d="M359.5,88.1h15.5v2.5c0,12.6-9.5,18.9-28.4,18.9c-12.8,0-21.2-2.2-25.2-6.5c-4-4.4-5.9-13.6-5.9-27.8
		c0-12.6,2.1-21,6.2-25.3c4.1-4.3,12.2-6.5,24.3-6.5c11.5,0,19.3,2.1,23.2,6.3c3.9,4.2,5.9,12.5,5.9,24.8v4.7h-43.7
		c-0.1,1.4-0.1,2.4-0.1,2.8c0,6.4,1,10.6,2.9,12.7c2,2.1,5.9,3.2,11.7,3.2c5.7,0,9.4-0.6,11.1-1.9C358.7,94.9,359.5,92.2,359.5,88.1
		z M359.6,69.8l-0.1-2.6c0-5.1-0.9-8.5-2.7-10c-1.8-1.5-5.6-2.3-11.6-2.3c-5.8,0-9.5,0.9-11.3,2.8c-1.7,1.8-2.6,5.9-2.6,12.1H359.6z
		"/>
	<path fill="#3B97D3" d="M441.9,61.9h-15.1c-0.1-0.5-0.2-0.9-0.2-1.2c-0.3-3.1-1.2-5-2.7-5.8c-1.5-0.8-5-1.1-10.6-1.1
		c-8.1,0-12.1,2.6-12.1,7.8c0,3.6,0.7,5.7,2.1,6.4c1.4,0.7,6.2,1.2,14.4,1.6c11,0.5,18.2,2,21.6,4.4c3.3,2.4,5,7.3,5,14.7
		c0,7.9-2.2,13.3-6.7,16.4c-4.4,3-12.4,4.6-23.9,4.6c-11,0-18.6-1.4-22.6-4.1c-4.1-2.7-6.1-7.9-6.1-15.4v-1.6h16.1
		c-0.2,0.9-0.4,1.6-0.4,2.2c-0.6,5.7,3.8,8.6,13.2,8.6c9.8,0,14.7-2.8,14.7-8.5c0-5.4-3.1-8.2-9.2-8.2c-13.8,0-22.9-1.3-27.3-3.9
		c-4.4-2.6-6.6-8-6.6-16.3c0-7.4,2-12.4,6-15c4-2.6,11.7-3.9,23.1-3.9c10.8,0,18,1.3,21.7,3.8C440,49.7,441.9,54.6,441.9,61.9z"/>
	<path fill="#3B97D3" d="M471.9,16.5v38.3l0.3,0.1c2.9-7.7,9.5-11.5,19.9-11.5c15.1,0,22.6,7.1,22.6,21.4v43.9h-15.5V69.1V67
		c0-7.6-3.9-11.4-11.6-11.4c-10.5,0-15.8,5.5-15.8,16.4v36.7h-15.5V16.5H471.9z"/>
</g>
<circle fill="#73D0F2" cx="118.1" cy="24.7" r="11.6"/>
</svg>
