<?xml version="1.0" encoding="utf-8"?>
<!-- Generator: Adobe Illustrator 18.1.1, SVG Export Plug-In . SVG Version: 6.00 Build 0)  -->
<svg version="1.1" id="Layer_1" xmlns="http://www.w3.org/2000/svg" xmlns:xlink="http://www.w3.org/1999/xlink" x="0px" y="0px"
	 viewBox="0 0 140.5 93.2" enable-background="new 0 0 140.5 93.2" xml:space="preserve">
<rect x="48.7" y="61.6" fill="none" width="67.3" height="11.5"/>
<text transform="matrix(1 0 0 1 48.6687 69.8848)" font-family="'OpenSans-Semibold'" font-size="10.8863">0.002 mBTC</text>
<path fill="#FFFFFF" stroke="#2C3E50" stroke-miterlimit="10" d="M126.6,91.7H13.8c-6.6,0-12-5.4-12-12V13.5c0-6.6,5.4-12,12-12
	h112.8c6.6,0,12,5.4,12,12v66.2C138.6,86.3,133.2,91.7,126.6,91.7z"/>
<text transform="matrix(1 0 0 1 19.8826 21.1973)" fill="#2C3E50" font-family="'OpenSans-Bold'" font-size="14.0325">Amount Spent</text>
<g>
	<g id="Fill_40_">
		<g>
			<circle fill="#FFFFFF" cx="71.1" cy="56.4" r="22.9"/>
		</g>
	</g>
	<g id="Red_18_">
		<g>
			<path fill="#F37476" d="M80.1,52c-0.4-0.3-1-0.2-1.2,0.3l-6.1,9.3c-0.3,0.4-0.2,1,0.3,1.2c0.4,0.3,1,0.2,1.2-0.3l6.1-9.3
				C80.7,52.8,80.5,52.3,80.1,52z"/>
		</g>
	</g>
	<g id="Teal_3_">
		<g>
			<circle fill="#17ADB8" cx="71.1" cy="65.8" r="4.9"/>
		</g>
	</g>
	<g id="Yellow_23_">
		<g>
			<path fill="#FFC96A" d="M76,65.5c0,0.1,0,0.2,0,0.3c0,2.7-2.2,4.9-4.9,4.9c-2.7,0-4.9-2.2-4.9-4.9c0-0.1,0-0.2,0-0.3
				c-4.5,1.1-8.3,3.7-11.1,7.3c4.1,4,9.8,6.5,16,6.5c6.2,0,11.9-2.5,16-6.5C84.4,69.3,80.5,66.7,76,65.5z"/>
		</g>
	</g>
	<g id="Inner_Lines_2_27_" opacity="0.251">
		<g>
			<path fill="#171C1F" d="M66.2,65.5c-4.5,1.1-8.3,3.7-11.1,7.3c0.2,0.2,0.4,0.4,0.7,0.6c2.6-3.4,6.2-5.9,10.5-7c0-0.2,0-0.4,0-0.6
				C66.2,65.7,66.2,65.6,66.2,65.5z M71.1,64c-1,0-1.8,0.8-1.8,1.8c0,1,0.8,1.8,1.8,1.8c1,0,1.8-0.8,1.8-1.8
				C72.9,64.8,72.1,64,71.1,64z M71.1,66.7c-0.5,0-0.9-0.4-0.9-0.9s0.4-0.9,0.9-0.9c0.5,0,0.9,0.4,0.9,0.9S71.6,66.7,71.1,66.7z
				 M76,65.5c0,0.1,0,0.2,0,0.3c0,0.2,0,0.4,0,0.6c4.2,1.1,7.9,3.6,10.5,7c0.2-0.2,0.4-0.4,0.7-0.6C84.4,69.3,80.5,66.7,76,65.5z"/>
		</g>
	</g>
	<g id="Inner_Lines_1_31_">
		<g>
			<path fill="#171C1F" d="M56.7,55.9h-1.8c-0.2,0-0.4,0.2-0.4,0.4s0.2,0.4,0.4,0.4h1.8c0.2,0,0.4-0.2,0.4-0.4S57,55.9,56.7,55.9z
				 M78.1,44.3c0.2,0.1,0.5,0.1,0.6-0.2l0.9-1.6c0.1-0.2,0.1-0.5-0.2-0.6c-0.2-0.1-0.5-0.1-0.6,0.2l-0.9,1.6
				C77.8,43.9,77.9,44.2,78.1,44.3z M58.9,48.8l-1.6-0.9c-0.2-0.1-0.5-0.1-0.6,0.2c-0.1,0.2-0.1,0.5,0.2,0.6l1.6,0.9
				c0.2,0.1,0.5,0.1,0.6-0.2C59.1,49.2,59.1,48.9,58.9,48.8z M71.1,42.4c0.2,0,0.4-0.2,0.4-0.4v-1.8c0-0.2-0.2-0.4-0.4-0.4
				c-0.2,0-0.4,0.2-0.4,0.4V42C70.6,42.2,70.9,42.4,71.1,42.4z M80.4,51.6c-0.6-0.4-1.5-0.2-1.9,0.4l-5.7,8.7
				c-2.3-0.8-4.9,0.1-6.3,2.2c-1.6,2.5-0.9,5.8,1.6,7.5c2.5,1.6,5.8,0.9,7.5-1.6c1.4-2.1,1.1-4.8-0.5-6.6l5.7-8.7
				C81.2,52.9,81,52,80.4,51.6z M74.9,68.3c-1.3,2.1-4.1,2.7-6.2,1.3c-2.1-1.3-2.7-4.1-1.3-6.2c1.3-2.1,4.1-2.7,6.2-1.3
				C75.6,63.4,76.2,66.2,74.9,68.3z M80,53l-5.6,8.6c-0.1-0.1-0.3-0.2-0.4-0.3c-0.1-0.1-0.2-0.1-0.4-0.2l5.6-8.6
				c0.1-0.2,0.4-0.3,0.6-0.1C80.1,52.5,80.1,52.8,80,53z M87.3,55.9h-1.8c-0.2,0-0.4,0.2-0.4,0.4s0.2,0.4,0.4,0.4h1.8
				c0.2,0,0.4-0.2,0.4-0.4S87.5,55.9,87.3,55.9z M63.4,42.1c-0.1-0.2-0.4-0.3-0.6-0.2c-0.2,0.1-0.3,0.4-0.2,0.6l0.9,1.6
				c0.1,0.2,0.4,0.3,0.6,0.2c0.2-0.1,0.3-0.4,0.2-0.6L63.4,42.1z M85.5,48.1c-0.1-0.2-0.4-0.3-0.6-0.2l-1.6,0.9
				c-0.2,0.1-0.3,0.4-0.2,0.6c0.1,0.2,0.4,0.3,0.6,0.2l1.6-0.9C85.6,48.5,85.6,48.3,85.5,48.1z"/>
		</g>
	</g>
	<g id="Shadows_47_" opacity="0.102">
		<g>
			<path fill="#010101" d="M71.1,70.3c2.5,0,4.5-2,4.5-4.5c0-0.2,0-0.3,0-0.4c-0.2,2.3-2.1,4-4.5,4c-2.3,0-4.3-1.8-4.5-4
				c0,0.1,0,0.3,0,0.4C66.6,68.3,68.6,70.3,71.1,70.3z M93.1,55.9c-0.2,12-10,21.6-22,21.6c-12,0-21.8-9.6-22-21.6
				c0,0.2,0,0.3,0,0.4c0,12.2,9.9,22,22,22c12.2,0,22-9.9,22-22C93.1,56.2,93.1,56.1,93.1,55.9z M80.8,55.3c0.3-0.5,0.3-1.2-0.1-1.6
				l-5.6,8.5c0.2,0.3,0.4,0.6,0.6,0.8L80.8,55.3z M68.2,72.2c2.5,1.6,5.8,0.9,7.5-1.6c0.8-1.2,1-2.5,0.8-3.8c-0.1,0.7-0.4,1.4-0.8,2
				c-1.6,2.5-5,3.2-7.5,1.6c-1.3-0.9-2.1-2.2-2.4-3.7C65.4,68.8,66.3,70.9,68.2,72.2z"/>
		</g>
	</g>
	<g id="Outline_48_">
		<g>
			<path fill="#171C1F" d="M71.1,32.5c-13.2,0-23.8,10.7-23.8,23.8s10.7,23.8,23.8,23.8c13.2,0,23.8-10.7,23.8-23.8
				S84.3,32.5,71.1,32.5z M71.1,78.4c-12.2,0-22-9.9-22-22c0-12.2,9.9-22,22-22c12.2,0,22,9.9,22,22C93.1,68.6,83.3,78.4,71.1,78.4z
				"/>
		</g>
	</g>
</g>
</svg>
