<?xml version="1.0" encoding="utf-8"?>
<!-- Generator: Adobe Illustrator 18.1.1, SVG Export Plug-In . SVG Version: 6.00 Build 0)  -->
<svg version="1.1" id="Layer_1" xmlns="http://www.w3.org/2000/svg" xmlns:xlink="http://www.w3.org/1999/xlink" x="0px" y="0px"
	 viewBox="0 0 140.5 93.2" enable-background="new 0 0 140.5 93.2" xml:space="preserve">
<path fill="#FFFFFF" stroke="#2C3E50" stroke-miterlimit="10" d="M126.6,91.7H13.8c-6.6,0-12-5.4-12-12V13.5c0-6.6,5.4-12,12-12
	h112.8c6.6,0,12,5.4,12,12v66.2C138.6,86.3,133.2,91.7,126.6,91.7z"/>
<text transform="matrix(1 0 0 1 19.0089 22.1078)" fill="#2C3E50" font-family="'OpenSans-Bold'" font-size="14.0325">Price per Hour</text>
<g>
	<g id="Fill_31_">
		<g>
			<path fill="#73CAF2" d="M52.5,73.7h4.4v-14h-4.4V73.7z M63,73.7h4.4V49.2H63V73.7z M73.5,73.7h4.4V54.5h-4.4V73.7z M84,44v29.8
				h4.4V44H84z"/>
		</g>
	</g>
	<g id="Blue_17_">
		<g>
			<path fill="#FFC96A" d="M54.7,44.4c-1.7,0-3.1,1.4-3.1,3.1s1.4,3.1,3.1,3.1c1.7,0,3.1-1.4,3.1-3.1S56.4,44.4,54.7,44.4z M65.2,33
				c-1.7,0-3.1,1.4-3.1,3.1c0,1.7,1.4,3.1,3.1,3.1s3.1-1.4,3.1-3.1C68.3,34.4,66.9,33,65.2,33z M75.7,39.1c-1.7,0-3.1,1.4-3.1,3.1
				c0,1.7,1.4,3.1,3.1,3.1s3.1-1.4,3.1-3.1C78.8,40.5,77.4,39.1,75.7,39.1z M86.2,29.9c-1.7,0-3.1,1.4-3.1,3.1
				c0,1.7,1.4,3.1,3.1,3.1c1.7,0,3.1-1.4,3.1-3.1C89.3,31.3,87.9,29.9,86.2,29.9z"/>
		</g>
	</g>
	<g id="Inner_Lines_1_23_">
		<g>
			<path fill="#171C1F" d="M86.2,29.1c-2.2,0-3.9,1.8-3.9,3.9c0,0.8,0.3,1.6,0.7,2.2l-4.6,4c-0.7-0.6-1.6-1-2.7-1
				c-1.3,0-2.4,0.6-3.2,1.6l-3.7-2.2c0.2-0.5,0.3-1,0.3-1.6c0-2.2-1.8-3.9-3.9-3.9s-3.9,1.8-3.9,3.9c0,1,0.4,1.9,1,2.6L57,44.3
				c-0.7-0.5-1.5-0.8-2.3-0.8c-2.2,0-3.9,1.8-3.9,3.9s1.8,3.9,3.9,3.9c2.2,0,3.9-1.8,3.9-3.9c0-1-0.4-1.9-1-2.6l5.2-5.6
				c0.7,0.5,1.5,0.8,2.3,0.8c1.3,0,2.4-0.6,3.2-1.6l3.7,2.2c-0.2,0.5-0.3,1-0.3,1.6c0,2.2,1.8,3.9,3.9,3.9c2.2,0,3.9-1.8,3.9-3.9
				c0-0.8-0.3-1.6-0.7-2.2l4.6-4c0.7,0.6,1.6,1,2.7,1c2.2,0,3.9-1.8,3.9-3.9C90.2,30.8,88.4,29.1,86.2,29.1z M54.7,49.6
				c-1.2,0-2.2-1-2.2-2.2c0-1.2,1-2.2,2.2-2.2c1.2,0,2.2,1,2.2,2.2C56.9,48.7,55.9,49.6,54.7,49.6z M65.2,38.3c-1.2,0-2.2-1-2.2-2.2
				c0-1.2,1-2.2,2.2-2.2c1.2,0,2.2,1,2.2,2.2C67.4,37.3,66.4,38.3,65.2,38.3z M75.7,44.4c-1.2,0-2.2-1-2.2-2.2c0-1.2,1-2.2,2.2-2.2
				c1.2,0,2.2,1,2.2,2.2C77.9,43.4,76.9,44.4,75.7,44.4z M86.2,35.2c-1.2,0-2.2-1-2.2-2.2c0-1.2,1-2.2,2.2-2.2c1.2,0,2.2,1,2.2,2.2
				C88.4,34.2,87.4,35.2,86.2,35.2z"/>
		</g>
	</g>
	<g id="Inner_Lines_2_20_" opacity="0.251">
		<g>
			<path fill="#171C1F" d="M63,51.8h4.4V51H63V51.8z M52.5,62.3h4.4v-0.9h-4.4V62.3z M73.5,57.1h4.4v-0.9h-4.4V57.1z M84,45.7v0.9
				h4.4v-0.9H84z"/>
		</g>
	</g>
	<g id="Shadows_38_" opacity="0.102">
		<g>
			<path fill="#010101" d="M54.7,48.8c-1.1,0-1.9-0.8-2.1-1.8c0,0.1,0,0.3,0,0.4c0,1.2,1,2.2,2.2,2.2c1.2,0,2.2-1,2.2-2.2
				c0-0.1,0-0.3,0-0.4C56.7,48,55.8,48.8,54.7,48.8z M52.5,73.7h4.4v-0.9h-4.4V73.7z M86.2,35.2c1.2,0,2.2-1,2.2-2.2
				c0-0.1,0-0.3,0-0.4c-0.2,1-1.1,1.8-2.1,1.8c-1.1,0-1.9-0.8-2.1-1.8c0,0.1,0,0.3,0,0.4C84,34.2,85,35.2,86.2,35.2z M63,73.7h4.4
				v-0.9H63V73.7z M84,73.7h4.4v-0.9H84V73.7z M65.2,37.4c-1.1,0-1.9-0.8-2.1-1.8c0,0.1,0,0.3,0,0.4c0,1.2,1,2.2,2.2,2.2
				c1.2,0,2.2-1,2.2-2.2c0-0.1,0-0.3,0-0.4C67.2,36.6,66.3,37.4,65.2,37.4z M75.7,43.5c-1.1,0-1.9-0.8-2.1-1.8c0,0.1,0,0.3,0,0.4
				c0,1.2,1,2.2,2.2,2.2c1.2,0,2.2-1,2.2-2.2c0-0.1,0-0.3,0-0.4C77.7,42.8,76.8,43.5,75.7,43.5z M73.5,73.7h4.4v-0.9h-4.4V73.7z"/>
		</g>
	</g>
	<g id="Outline_39_">
		<g>
			<path fill="#171C1F" d="M56.9,58h-4.4c-1,0-1.8,0.8-1.8,1.8v14c0,1,0.8,1.8,1.8,1.8h4.4c1,0,1.8-0.8,1.8-1.8v-14
				C58.7,58.7,57.9,58,56.9,58z M56.9,73.7h-4.4v-14h4.4V73.7z M67.4,47.5H63c-1,0-1.8,0.8-1.8,1.8v24.5c0,1,0.8,1.8,1.8,1.8h4.4
				c1,0,1.8-0.8,1.8-1.8V49.2C69.2,48.2,68.4,47.5,67.4,47.5z M67.4,73.7H63V49.2h4.4V73.7z M88.4,42.2H84c-1,0-1.8,0.8-1.8,1.8
				v29.8c0,1,0.8,1.8,1.8,1.8h4.4c1,0,1.8-0.8,1.8-1.8V44C90.2,43,89.4,42.2,88.4,42.2z M88.4,73.7H84V44h4.4V73.7z M77.9,52.7h-4.4
				c-1,0-1.8,0.8-1.8,1.8v19.3c0,1,0.8,1.8,1.8,1.8h4.4c1,0,1.8-0.8,1.8-1.8V54.5C79.7,53.5,78.9,52.7,77.9,52.7z M77.9,73.7h-4.4
				V54.5h4.4V73.7z"/>
		</g>
	</g>
</g>
</svg>
